<?xml version="1.0" standalone="no"?>
<!DOCTYPE svg PUBLIC "-//W3C//DTD SVG 20010904//EN"
 "http://www.w3.org/TR/2001/REC-SVG-20010904/DTD/svg10.dtd">
<svg version="1.0" xmlns="http://www.w3.org/2000/svg"
 width="200.000000pt" height="203.000000pt" viewBox="0 0 200.000000 203.000000"
 preserveAspectRatio="xMidYMid meet">

<g transform="translate(0.000000,203.000000) scale(0.100000,-0.100000)"
fill="#000000" stroke="none">
<path d="M820 1916 c-314 -67 -565 -280 -680 -578 -170 -439 37 -951 465
-1154 221 -104 463 -119 693 -41 266 90 482 303 574 567 50 144 63 339 32 488
-56 273 -242 516 -491 641 -120 60 -222 83 -383 87 -97 2 -166 -1 -210 -10z
m278 -412 c82 -17 184 -61 190 -82 3 -9 -24 -12 -115 -10 -74 2 -131 -2 -154
-10 -76 -26 -117 -107 -104 -206 4 -28 25 -104 47 -169 22 -65 37 -121 34
-124 -3 -3 -84 7 -181 22 l-175 27 -10 37 c-18 61 -24 221 -11 282 16 75 66
157 117 191 84 56 218 72 362 42z m97 -209 c28 -16 58 -45 76 -73 65 -102 15
-192 -108 -192 -135 0 -251 156 -181 245 47 61 131 69 213 20z m194 -50 c74
-78 105 -149 109 -253 4 -80 2 -87 -32 -157 -38 -77 -112 -161 -188 -213 -104
-71 -278 -142 -410 -167 l-35 -7 -41 94 c-79 179 -153 370 -147 376 3 3 43 0
88 -7 194 -29 230 -32 301 -21 146 22 254 74 296 142 36 60 36 101 -6 246 -10
36 9 26 65 -33z"/>
</g>
</svg>
